<?xml version="1.0" encoding="utf-8"?>
<!-- Generator: Adobe Illustrator 19.0.0, SVG Export Plug-In . SVG Version: 6.00 Build 0)  -->
<svg version="1.1" id="Layer_1" xmlns="http://www.w3.org/2000/svg" xmlns:xlink="http://www.w3.org/1999/xlink" x="0px" y="0px"
	 viewBox="-251 366 109 62" style="enable-background:new -251 366 109 62;" xml:space="preserve">
<style type="text/css">
	.st0{fill:#0E1112;}
</style>
<g>
	<path class="st0" d="M-241.1,391.4h11.3v-14.9h4.2c6.7,0,11.3,4.6,12.6,14.9h11.9c-2.2-11-11.2-16.1-24.1-16.1h-16.5
		c0.5,3.9,0.7,6.6,0.7,12.1L-241.1,391.4L-241.1,391.4z"/>
	<path class="st0" d="M-213.2,403.6c-1.5,9.3-6,13.9-12.5,13.9h-4.2v-13.9h-11.3v3c0,5.6-0.2,8.3-0.7,12.1h16.5
		c12.8,0,21.4-5.1,23.9-15.1H-213.2z"/>
</g>
<g>
	<path class="st0" d="M-194.1,391.3h11.3v-14.7h3.2c5.2,0,9.4,2.2,9.4,10.4c0,1.7-0.2,3.1-0.5,4.3h11c0.5-1.3,0.8-2.6,0.8-4.3
		c0-9.9-9.7-11.7-20.6-11.7h-15.3c0.5,3.9,0.6,6.5,0.6,12.1C-194.1,387.3-194.1,391.3-194.1,391.3z"/>
	<path class="st0" d="M-182.8,403.4h-11.3v3.1c0,5.6-0.1,8.3-0.6,12.1h12.6c-0.5-3.9-0.6-6.6-0.6-12.1
		C-182.8,406.6-182.8,403.4-182.8,403.4z"/>
	<path class="st0" d="M-160.9,408.8c-1-2.1-2-3.9-3.4-5.3h-10.4c0.6,1.4,1.3,3.3,2.1,5.6c2.8,8.8,10.2,9.6,21.5,9.6v-1.1
		C-156,417.6-158.3,415.1-160.9,408.8z"/>
</g>
<g>
	<g>
		<path class="st0" d="M-236.1,394.6c0.5,0.2,0.8,0.6,1,1.1c0.3,0.4,0.3,1,0.3,1.6c0,0.5-0.2,1.1-0.3,1.5c-0.3,0.5-0.7,0.8-1,1
			c-0.5,0.2-1,0.4-1.7,0.4h-1.9v-5.9h1.9C-237.1,394.4-236.5,394.4-236.1,394.6z M-236.2,398.9c0.3-0.4,0.6-0.9,0.6-1.5
			c0-0.7-0.2-1.2-0.6-1.7c-0.3-0.3-0.9-0.5-1.5-0.5h-1v4.3h1C-237,399.4-236.5,399.3-236.2,398.9z"/>
		<path class="st0" d="M-231.4,396.6c0.2-0.4,0.5-0.6,0.8-0.9c0.3-0.2,0.7-0.3,1.2-0.3c0.3,0,0.7,0.1,1,0.2c0.3,0.1,0.5,0.4,0.6,0.5
			v-0.7h0.9v4.7h-1v-0.7c-0.2,0.2-0.3,0.4-0.7,0.6c-0.3,0.1-0.7,0.2-1,0.2c-0.5,0-0.8-0.1-1.2-0.3c-0.4-0.3-0.6-0.5-0.8-0.8
			c-0.2-0.4-0.3-0.8-0.3-1.3S-231.7,396.9-231.4,396.6z M-228.1,396.9c-0.2-0.2-0.3-0.4-0.5-0.6c-0.2-0.1-0.5-0.2-0.7-0.2
			s-0.5,0.1-0.7,0.2c-0.2,0.2-0.5,0.3-0.5,0.6c-0.1,0.3-0.2,0.5-0.2,0.9s0.1,0.6,0.2,0.9c0.2,0.2,0.3,0.4,0.5,0.6
			c0.2,0.1,0.4,0.2,0.7,0.2s0.5-0.1,0.7-0.2c0.2-0.2,0.3-0.3,0.5-0.6c0.2-0.2,0.2-0.5,0.2-0.9S-228,397.3-228.1,396.9z"/>
		<path class="st0" d="M-220.1,395.6c0.3,0.1,0.5,0.4,0.7,0.7s0.2,0.6,0.2,1v2.8h-1v-2.6c0-0.4,0-0.7-0.3-1
			c-0.2-0.2-0.5-0.4-0.8-0.4s-0.7,0.1-0.8,0.4c-0.2,0.2-0.3,0.6-0.3,1v2.6h-1v-4.8h1v0.6c0.2-0.2,0.3-0.4,0.7-0.4
			c0.2-0.2,0.5-0.2,0.8-0.2C-220.7,395.4-220.4,395.6-220.1,395.6z"/>
		<path class="st0" d="M-215.7,394.8c-0.2-0.1-0.2-0.3-0.2-0.4c0-0.2,0-0.4,0.2-0.5s0.3-0.2,0.5-0.2s0.3,0.1,0.5,0.2
			c0.2,0.1,0.2,0.3,0.2,0.5c0,0.1,0,0.3-0.2,0.4c-0.2,0.1-0.3,0.2-0.5,0.2C-215.4,394.9-215.6,394.9-215.7,394.8z M-214.8,395.6v4.7
			h-1v-4.7H-214.8z"/>
		<path class="st0" d="M-210.6,400.1c-0.3-0.1-0.5-0.3-0.7-0.5c-0.2-0.3-0.3-0.5-0.3-0.8h1c0,0.2,0.1,0.4,0.3,0.5
			c0.1,0.1,0.3,0.2,0.6,0.2c0.3,0,0.5,0,0.7-0.1c0.1-0.1,0.2-0.2,0.2-0.5c0-0.1,0-0.3-0.3-0.5c-0.2,0-0.5-0.2-0.8-0.3
			c-0.4,0-0.7-0.2-0.9-0.3c-0.2-0.1-0.5-0.2-0.5-0.5c-0.1-0.2-0.2-0.5-0.2-0.7s0-0.5,0.2-0.7s0.4-0.4,0.7-0.5
			c0.3-0.1,0.5-0.2,0.9-0.2c0.5,0,1,0.1,1.3,0.4s0.5,0.6,0.5,1.1h-1c0-0.2,0-0.4-0.3-0.5c-0.1-0.1-0.3-0.2-0.6-0.2
			c-0.3,0-0.5,0.1-0.5,0.2c-0.2,0-0.2,0.2-0.2,0.3c0,0.2,0,0.2,0.1,0.3c0,0.1,0.2,0.1,0.4,0.2c0.1,0.1,0.3,0.2,0.5,0.2
			c0.3,0,0.6,0.2,0.8,0.3c0.2,0.1,0.5,0.2,0.5,0.5c0.2,0.2,0.2,0.5,0.2,0.7s0,0.5-0.2,0.7c-0.1,0.2-0.3,0.4-0.6,0.5
			c-0.3,0.1-0.5,0.2-0.9,0.2C-210,400.4-210.2,400.3-210.6,400.1z"/>
		<path class="st0" d="M-201.2,395.6c0.3,0.1,0.5,0.4,0.7,0.7c0.1,0.3,0.2,0.6,0.2,1v2.8h-1v-2.6c0-0.4,0-0.7-0.3-1
			c-0.2-0.2-0.5-0.4-0.9-0.4c-0.3,0-0.6,0.1-0.8,0.4c-0.2,0.2-0.3,0.6-0.3,1v2.6h-1v-6.3h1v2.1c0.1-0.2,0.3-0.3,0.6-0.4
			c0.3-0.1,0.5-0.1,0.9-0.1C-201.7,395.4-201.4,395.6-201.2,395.6z"/>
	</g>
	<g>
		<path class="st0" d="M-190,400.1l-1.4-2.3h-0.7v2.3h-1v-5.9h2c0.5,0,0.9,0,1.1,0.2c0.3,0.1,0.6,0.4,0.7,0.6s0.2,0.5,0.2,0.9
			s-0.1,0.7-0.4,1.1c-0.2,0.3-0.5,0.5-1,0.6l1.5,2.5L-190,400.1L-190,400.1z M-192.1,397.1h1c0.4,0,0.6,0,0.9-0.3
			c0.2-0.2,0.3-0.5,0.3-0.7s-0.1-0.5-0.3-0.7c-0.2-0.1-0.4-0.3-0.9-0.3h-1V397.1z"/>
		<path class="st0" d="M-185.5,396.6c0.2-0.4,0.5-0.6,0.8-0.9c0.4-0.2,0.7-0.3,1.2-0.3c0.3,0,0.7,0.1,1,0.2c0.3,0.1,0.5,0.4,0.6,0.5
			v-0.7h1v4.7h-1v-0.7c-0.1,0.2-0.4,0.4-0.6,0.6c-0.3,0.1-0.7,0.2-1,0.2c-0.5,0-0.8-0.1-1.2-0.3c-0.3-0.3-0.5-0.5-0.8-0.8
			c-0.2-0.4-0.3-0.8-0.3-1.3S-185.7,396.9-185.5,396.6z M-182.2,396.9c-0.1-0.2-0.3-0.4-0.5-0.6c-0.2-0.1-0.4-0.2-0.7-0.2
			s-0.5,0.1-0.7,0.2c-0.2,0.2-0.4,0.3-0.5,0.6c-0.1,0.2-0.2,0.5-0.2,0.9s0,0.6,0.2,0.9c0.1,0.2,0.3,0.4,0.5,0.6
			c0.2,0.1,0.5,0.2,0.7,0.2s0.5-0.1,0.7-0.2c0.2-0.2,0.4-0.3,0.5-0.6c0.2-0.2,0.2-0.5,0.2-0.9S-182,397.3-182.2,396.9z"/>
		<path class="st0" d="M-176.6,399.4h2.2v0.8h-3.3v-0.8l2.2-3.1h-2.2v-0.8h3.3v0.8L-176.6,399.4z"/>
		<path class="st0" d="M-171.3,396.6c0.2-0.4,0.5-0.6,0.8-0.9c0.4-0.2,0.7-0.3,1.1-0.3s0.7,0.1,1,0.2c0.3,0.1,0.5,0.4,0.6,0.5v-0.7
			h1v4.7h-1v-0.7c-0.1,0.2-0.4,0.4-0.6,0.6c-0.3,0.1-0.6,0.2-1,0.2s-0.8-0.1-1.1-0.3c-0.3-0.2-0.6-0.5-0.8-0.8
			c-0.3-0.4-0.3-0.8-0.3-1.3S-171.5,396.9-171.3,396.6z M-168,396.9c-0.1-0.2-0.3-0.4-0.5-0.6c-0.2-0.1-0.4-0.2-0.7-0.2
			c-0.3,0-0.5,0.1-0.7,0.2c-0.2,0.2-0.4,0.3-0.5,0.6c-0.1,0.2-0.2,0.5-0.2,0.9s0.1,0.6,0.2,0.9c0.1,0.2,0.3,0.4,0.5,0.6
			c0.2,0.1,0.4,0.2,0.7,0.2c0.3,0,0.5-0.1,0.7-0.2c0.2-0.2,0.4-0.3,0.5-0.6c0.1-0.2,0.2-0.5,0.2-0.9S-167.9,397.3-168,396.9z"/>
	</g>
</g>
</svg>
